<?xml version="1.0" encoding="UTF-8" standalone="no"?>
<svg
   xmlns:dc="http://purl.org/dc/elements/1.1/"
   xmlns:cc="http://creativecommons.org/ns#"
   xmlns:rdf="http://www.w3.org/1999/02/22-rdf-syntax-ns#"
   xmlns:svg="http://www.w3.org/2000/svg"
   xmlns="http://www.w3.org/2000/svg"
   xmlns:sodipodi="http://sodipodi.sourceforge.net/DTD/sodipodi-0.dtd"
   xmlns:inkscape="http://www.inkscape.org/namespaces/inkscape"
   viewBox="0 0 520.00001 200"
   height="200"
   width="520"
   xml:space="preserve"
   id="svg2"
   version="1.1"
   sodipodi:docname="at_hearth_logo_yoko_vector.svg"
   inkscape:version="0.92.4 (5da689c313, 2019-01-14)"><sodipodi:namedview
     pagecolor="#ffffff"
     bordercolor="#666666"
     borderopacity="1"
     objecttolerance="10"
     gridtolerance="10"
     guidetolerance="10"
     inkscape:pageopacity="0"
     inkscape:pageshadow="2"
     inkscape:window-width="3000"
     inkscape:window-height="1955"
     id="namedview3791"
     showgrid="false"
     inkscape:zoom="3.6815219"
     inkscape:cx="293.18023"
     inkscape:cy="153.33333"
     inkscape:window-x="-13"
     inkscape:window-y="-13"
     inkscape:window-maximized="1"
     inkscape:current-layer="g10" /><metadata
     id="metadata8"><rdf:RDF><cc:Work
         rdf:about=""><dc:format>image/svg+xml</dc:format><dc:type
           rdf:resource="http://purl.org/dc/dcmitype/StillImage" /><dc:title></dc:title></cc:Work></rdf:RDF></metadata><defs
     id="defs6"><clipPath
       id="clipPath18"
       clipPathUnits="userSpaceOnUse"><path
         id="path16"
         d="M 0,230 H 230 V 0 H 0 Z"
         inkscape:connector-curvature="0" /></clipPath></defs><g
     transform="matrix(1.3333333,0,0,-1.3333333,0,200.00001)"
     id="g10"
     style="fill:#10d999;fill-opacity:1"><g
       style="fill:#10d999;fill-opacity:1"
       id="g14"
       clip-path="url(#clipPath18)"><g
         style="fill:#10d999;fill-opacity:1"
         id="g20"
         transform="translate(54.969905,108.98085)"><path
           inkscape:connector-curvature="0"
           d="m 0,0 c 0,-4.735 3.848,-8.585 8.579,-8.585 4.732,0 8.579,3.85 8.579,8.585 0,4.735 -3.847,8.585 -8.579,8.585 C 3.848,8.585 0,4.735 0,0 m 4.494,0 c 0,2.253 1.831,4.088 4.085,4.088 2.25,0 4.085,-1.835 4.085,-4.088 0,-2.253 -1.835,-4.085 -4.085,-4.085 -2.254,0 -4.085,1.832 -4.085,4.085 M -20.965,3.933 -35.99,-9.333 c -0.577,-0.507 -0.909,-1.243 -0.909,-2.016 v -43.964 c 0,-0.858 -0.504,-1.638 -1.281,-1.983 -2.577,-1.161 -5.133,-2.463 -7.606,-3.87 -0.833,-0.479 -1.354,-1.375 -1.354,-2.349 0,-0.46 0.12,-0.919 0.355,-1.324 0.733,-1.287 2.381,-1.74 3.668,-1.005 3.238,1.851 6.576,3.481 9.916,4.834 1.02,0.408 1.68,1.391 1.68,2.49 v 44.978 c 0,0.624 0.269,1.22 0.741,1.632 l 5.296,4.678 c 0.637,0.564 1.552,0.703 2.33,0.349 0.773,-0.346 1.277,-1.126 1.277,-1.978 v -13.098 c 0,-0.72 0.278,-1.395 0.788,-1.902 l 8.294,-8.301 c 0.409,-0.408 0.634,-0.959 0.634,-1.54 v -18.91 c 0,-0.748 0.317,-1.471 0.872,-1.984 0.555,-0.507 1.3,-0.763 2.051,-0.7 2.389,0.203 4.766,0.307 7.057,0.307 3.886,0 7.847,-0.282 11.771,-0.834 0.773,-0.114 1.553,0.111 2.142,0.628 0.589,0.51 0.929,1.249 0.929,2.031 v 28.989 c 0,0.64 0.276,1.239 0.761,1.651 l 5.073,4.367 c 0.809,0.694 2.026,0.694 2.834,0.004 l 5.079,-4.371 c 0.479,-0.415 0.755,-1.018 0.755,-1.651 V -58.52 c 0,-1.099 0.659,-2.082 1.68,-2.49 3.338,-1.353 6.678,-2.983 9.92,-4.834 0.624,-0.358 1.349,-0.446 2.041,-0.257 0.693,0.188 1.27,0.635 1.625,1.262 0.355,0.624 0.45,1.35 0.257,2.044 -0.191,0.697 -0.637,1.271 -1.258,1.629 -2.463,1.404 -5.02,2.707 -7.607,3.87 -0.776,0.345 -1.28,1.122 -1.28,1.983 v 33.373 c 0,0.786 -0.342,1.527 -0.935,2.043 l -9.941,8.545 c -1.018,0.874 -2.492,0.874 -3.503,0 L 8.221,-19.899 C 7.622,-20.413 7.279,-21.154 7.279,-21.94 v -25.801 c 0,-0.602 -0.253,-1.182 -0.693,-1.598 -0.447,-0.411 -1.046,-0.617 -1.649,-0.57 -2.44,0.2 -4.835,0.301 -7.118,0.301 l -1.876,-0.035 -0.491,-0.016 c -0.58,-0.016 -1.154,0.21 -1.572,0.612 -0.418,0.406 -0.662,0.973 -0.662,1.56 v 15.804 c 0,0.717 -0.277,1.395 -0.786,1.899 l -8.294,8.309 c -0.409,0.403 -0.637,0.951 -0.637,1.531 V 1.914 c 0,1.059 -0.621,2.019 -1.584,2.457 -0.961,0.43 -2.096,0.259 -2.882,-0.438"
           style="fill:#10d999;fill-opacity:1;fill-rule:nonzero;stroke:none"
           id="path22" /></g></g><g
       inkscape:groupmode="layer"
       id="layer1"
       inkscape:label="Layer 1"><g
         style="fill:#10d999;fill-opacity:1"
         id="g24"
         transform="matrix(1.4079025,0,0,1.4079025,350.49294,96.689068)"><path
           inkscape:connector-curvature="0"
           d="m 0,0 v -25.135 c 0,-1.201 0.976,-2.177 2.177,-2.177 1.198,0 2.174,0.976 2.174,2.177 v 12.849 c 0,3.032 2.465,5.505 5.502,5.505 3.033,0 5.501,-2.473 5.501,-5.505 v -12.849 c 0,-1.201 0.977,-2.177 2.174,-2.177 1.202,0 2.178,0.976 2.178,2.177 v 12.849 c 0,5.434 -4.421,9.859 -9.853,9.859 -1.48,0 -2.918,-0.333 -4.275,-0.992 C 5.309,-3.549 5.001,-3.53 4.754,-3.375 4.504,-3.22 4.351,-2.944 4.351,-2.652 V 0 C 4.351,1.201 3.375,2.178 2.177,2.178 0.976,2.178 0,1.201 0,0"
           style="fill:#10d999;fill-opacity:1;fill-rule:nonzero;stroke:none"
           id="path26" /></g><g
         style="fill:#10d999;fill-opacity:1"
         id="g28"
         transform="matrix(1.4079025,0,0,1.4079025,229.19468,76.098494)"><path
           inkscape:connector-curvature="0"
           d="m 0,0 v -2.776 c 0,-5.465 4.443,-9.911 9.904,-9.911 2.034,0 3.992,0.615 5.659,1.778 0.48,0.333 0.796,0.831 0.898,1.404 0.101,0.573 -0.025,1.153 -0.358,1.629 -0.333,0.476 -0.831,0.795 -1.401,0.897 -0.573,0.101 -1.153,-0.026 -1.626,-0.358 -0.935,-0.653 -2.034,-0.996 -3.172,-0.996 -3.062,0 -5.552,2.491 -5.552,5.557 V 0 c 0,3.061 2.49,5.555 5.552,5.555 2.298,0 4.383,-1.451 5.195,-3.613 C 15.196,1.683 15.158,1.388 15,1.156 14.841,0.928 14.578,0.788 14.299,0.788 h -3.717 c -1.201,0 -2.177,-0.975 -2.177,-2.177 0,-1.201 0.976,-2.177 2.177,-2.177 h 7.048 c 1.199,0 2.175,0.976 2.175,2.177 V 0 c 0,5.463 -4.441,9.91 -9.901,9.91 C 4.443,9.91 0,5.463 0,0"
           style="fill:#10d999;fill-opacity:1;fill-rule:nonzero;stroke:none"
           id="path30" /></g><g
         style="fill:#10d999;fill-opacity:1"
         id="g32"
         transform="matrix(1.4079025,0,0,1.4079025,325.26881,96.689068)"><path
           inkscape:connector-curvature="0"
           d="m 0,0 v -19.5 c 0,-4.307 3.502,-7.812 7.806,-7.812 h 1.465 c 1.201,0 2.176,0.976 2.176,2.177 0,1.201 -0.975,2.177 -2.176,2.177 H 7.806 c -1.905,0 -3.454,1.55 -3.454,3.458 v 10.36 c 0,0.472 0.383,0.856 0.852,0.856 h 4.067 c 1.201,0 2.176,0.976 2.176,2.178 0,1.197 -0.975,2.176 -2.176,2.176 H 5.204 c -0.469,0 -0.852,0.381 -0.852,0.853 V 0 C 4.352,1.201 3.375,2.178 2.177,2.178 0.977,2.178 0,1.201 0,0"
           style="fill:#10d999;fill-opacity:1;fill-rule:nonzero;stroke:none"
           id="path34" /></g><g
         style="fill:#10d999;fill-opacity:1"
         id="g36"
         transform="matrix(1.4079025,0,0,1.4079025,157.9251,97.551121)"><path
           inkscape:connector-curvature="0"
           d="m 0,0 v -19.5 c 0,-4.307 3.502,-7.812 7.806,-7.812 h 1.465 c 1.201,0 2.176,0.976 2.176,2.177 0,1.201 -0.975,2.177 -2.176,2.177 H 7.806 c -1.905,0 -3.454,1.55 -3.454,3.458 v 10.36 c 0,0.472 0.383,0.856 0.852,0.856 h 4.067 c 1.201,0 2.176,0.976 2.176,2.178 0,1.197 -0.975,2.176 -2.176,2.176 H 5.204 c -0.469,0 -0.852,0.381 -0.852,0.853 V 0 C 4.352,1.201 3.375,2.178 2.177,2.178 0.977,2.178 0,1.201 0,0"
           style="fill:#10d999;fill-opacity:1;fill-rule:nonzero;stroke:none"
           id="path38" /></g><g
         style="fill:#10d999;fill-opacity:1"
         id="g40"
         transform="matrix(1.4079025,0,0,1.4079025,301.99168,79.711733)"><path
           inkscape:connector-curvature="0"
           d="m 0,0 v -13.076 c 0,-1.201 0.976,-2.177 2.178,-2.177 1.197,0 2.173,0.976 2.173,2.177 V 0 c 0,2.368 1.926,4.298 4.297,4.298 1.199,0 2.174,0.975 2.174,2.177 0,1.201 -0.975,2.177 -2.174,2.177 C 3.879,8.652 0,4.771 0,0"
           style="fill:#10d999;fill-opacity:1;fill-rule:nonzero;stroke:none"
           id="path42" /></g><g
         style="fill:#10d999;fill-opacity:1"
         id="g44"
         transform="matrix(1.4079025,0,0,1.4079025,212.53764,97.707961)"><path
           inkscape:connector-curvature="0"
           d="m 0,0 v -9.898 c 0,-0.473 -0.383,-0.856 -0.852,-0.856 h -13.162 c -0.472,0 -0.853,0.383 -0.853,0.856 V 0 c 0,1.2 -0.976,2.173 -2.177,2.173 -1.198,0 -2.174,-0.973 -2.174,-2.173 v -25.858 c 0,-1.202 0.976,-2.177 2.174,-2.177 1.201,0 2.177,0.975 2.177,2.177 v 9.897 c 0,0.469 0.381,0.856 0.853,0.856 h 13.162 c 0.469,0 0.852,-0.387 0.852,-0.856 v -9.897 c 0,-1.202 0.977,-2.177 2.174,-2.177 1.202,0 2.178,0.975 2.178,2.177 L 4.352,0 C 4.352,1.2 3.376,2.173 2.174,2.173 0.977,2.173 0,1.2 0,0"
           style="fill:#10d999;fill-opacity:1;fill-rule:nonzero;stroke:none"
           id="path46" /></g><g
         style="fill:#10d999;fill-opacity:1"
         id="g48"
         transform="matrix(1.4079025,0,0,1.4079025,265.47421,77.619169)"><path
           inkscape:connector-curvature="0"
           d="m 0,0 v -4.151 c 0,-5.303 4.311,-9.616 9.609,-9.616 1.199,0 2.175,0.976 2.175,2.177 0,1.201 -0.976,2.177 -2.175,2.177 -2.899,0 -5.257,2.361 -5.257,5.262 V 0 c 0,2.9 2.358,5.261 5.257,5.261 2.897,0 5.255,-2.361 5.255,-5.261 v -11.59 c 0,-1.201 0.976,-2.177 2.177,-2.177 1.198,0 2.175,0.976 2.175,2.177 V 0 c 0,5.303 -4.311,9.615 -9.607,9.615 C 4.311,9.615 0,5.303 0,0"
           style="fill:#10d999;fill-opacity:1;fill-rule:nonzero;stroke:none"
           id="path50" /></g><g
         style="fill:#10d999;fill-opacity:1"
         id="g52"
         transform="matrix(1.4079025,0,0,1.4079025,129.74369,94.239039)"><path
           inkscape:connector-curvature="0"
           d="m 0,0 c 4.479,0 7.608,-3.081 7.608,-7.492 v -3.585 C 7.579,-11.52 7.22,-11.871 6.769,-11.873 H -6.602 c -0.402,0.043 -0.711,0.356 -0.75,0.76 v 3.631 C -7.352,-3.869 -4.397,0 0,0 m 0,4.33 c -6.332,0 -11.682,-5.409 -11.682,-11.812 v -16.111 c 0,-1.195 0.97,-2.165 2.165,-2.165 1.196,0 2.165,0.97 2.165,2.165 v 6.62 c 0.039,0.42 0.372,0.746 0.795,0.77 H 6.807 c 0.432,-0.021 0.771,-0.359 0.801,-0.789 v -6.632 c 0,-1.195 0.97,-2.165 2.165,-2.165 1.196,0 2.165,0.97 2.165,2.165 V -7.492 C 11.938,-0.752 6.806,4.33 0,4.33"
           style="fill:#10d999;fill-opacity:1;fill-rule:nonzero;stroke:none"
           id="path54" /></g></g></g></svg>